<?xml version="1.0" standalone="no"?>
<!DOCTYPE svg PUBLIC "-//W3C//DTD SVG 20010904//EN"
 "http://www.w3.org/TR/2001/REC-SVG-20010904/DTD/svg10.dtd">
<svg version="1.0" xmlns="http://www.w3.org/2000/svg"
 width="512.000000pt" height="512.000000pt" viewBox="0 0 512.000000 512.000000"
 preserveAspectRatio="xMidYMid meet">

<g transform="translate(0.000000,512.000000) scale(0.100000,-0.100000)"
fill="#000000" stroke="none">
<path d="M2325 4949 c-211 -20 -499 -94 -702 -181 -1136 -487 -1721 -1750
-1352 -2922 199 -633 632 -1138 1231 -1436 915 -455 2021 -275 2746 448 197
197 335 389 462 644 590 1186 98 2624 -1100 3214 -390 193 -841 274 -1285 233z
m436 -319 c717 -73 1345 -508 1664 -1155 463 -938 154 -2067 -725 -2653 -382
-254 -883 -378 -1341 -331 -409 42 -813 209 -1119 464 -99 83 -271 261 -342
356 -226 301 -370 671 -408 1048 -51 508 98 1036 408 1450 71 95 243 273 342
356 414 345 984 519 1521 465z"/>
<path d="M1705 3506 c-163 -41 -299 -180 -334 -344 -15 -73 -15 -1131 0 -1204
36 -168 179 -311 347 -347 30 -6 147 -11 268 -11 242 0 264 5 310 66 24 31 29
47 29 95 0 62 -17 94 -69 133 -25 19 -45 21 -260 26 -259 6 -274 9 -302 75
-21 51 -21 1079 0 1130 28 66 43 69 302 75 215 5 235 7 260 26 52 39 69 71 69
133 0 48 -5 64 -29 95 -47 62 -67 66 -318 65 -141 0 -241 -5 -273 -13z"/>
<path d="M2625 3506 c-55 -25 -95 -85 -95 -141 0 -48 400 -1670 418 -1694 66
-90 192 -93 256 -7 15 20 122 335 291 855 292 899 284 867 230 937 -35 46 -86
68 -142 61 -52 -6 -110 -47 -128 -91 -7 -17 -88 -264 -181 -549 -92 -284 -171
-514 -174 -510 -4 5 -62 238 -130 518 -68 281 -129 524 -135 541 -29 72 -138
114 -210 80z"/>
</g>
</svg>
